<?xml version="1.0" standalone="no"?><svg xmlns:xlink="http://www.w3.org/1999/xlink" xmlns="http://www.w3.org/2000/svg" viewBox="0 0 50 50" preserveAspectRatio="xMaxYMax slice"><g transform="scale(0.11560907484993942)"><rect x="0" y="0" width="432.492" height="432.492" fill="#ffffff"/><rect x="0" y="0" width="108.123" height="108.123" fill="#ffffff"/><rect x="0" y="0" width="54.06" height="54.06" fill="#c5d5d5"/><path d="M 0 54.06 A 54.06 54.06 0 0 1 54.06 0 L 54.06 13.515 A 40.545 40.545 0 0 0 13.515 54.06" fill="#94b1b1"/><rect x="54.06" y="0" width="54.06" height="54.06" fill="#94b2b2"/><path d="M 54.06 0 A 54.06 54.06 0 0 1 108.12 54.06 L 94.605 54.06 A 40.545 40.545 0 0 0 54.06 13.515" fill="#2247e2"/><rect x="0" y="54.06" width="54.06" height="54.06" fill="#7ae4ff"/><path d="M 0 54.06 A 54.06 54.06 0 0 0 54.06 108.12 L 54.06 94.605 A 40.545 40.545 0 0 1 13.515 54.06" fill="#6f87ec"/><rect x="54.06" y="54.06" width="54.06" height="54.06" fill="#658f8f"/><path d="M 54.06 108.12 A 54.06 54.06 0 0 0 108.12 54.06 L 94.605 54.06 A 40.545 40.545 0 0 1 54.06 94.605" fill="#95b2b2"/><rect x="108.12" y="0" width="108.12" height="108.12" fill="#aaeeff"/><polygon points="216.24,0 216.24,108.12 108.12,108.12" fill="#548383"/><rect x="216.25" y="0" width="108.12" height="108.12" fill="#fafeff"/><path d="M 216.25 0 A 108.12 108.12 0 0 1 324.37 108.12 L 216.25 108.12" fill="#a0baba"/><rect x="324.369" y="0" width="108.123" height="108.123" fill="#ffffff"/><rect x="324.37" y="0" width="54.06" height="54.06" fill="#bbc6f6"/><polygon points="378.43,0 378.43,54.06 324.37,54.06" fill="#607bea"/><rect x="378.43" y="0" width="54.06" height="54.06" fill="#3255e4"/><polygon points="378.43,0 432.49,0 378.43,54.06" fill="#8096ef"/><rect x="324.37" y="54.06" width="54.06" height="54.06" fill="#fafbfe"/><polygon points="324.37,54.06 378.43,54.06 378.43,108.12" fill="#648f8f"/><rect x="378.43" y="54.06" width="54.06" height="54.06" fill="#f8f9fe"/><polygon points="378.43,54.06 432.49,108.12 378.43,108.12" fill="#788fed"/><rect x="0" y="108.12" width="108.12" height="108.12" fill="#fcfeff"/><path d="M 0 216.24 A 108.12 108.12 0 0 0 108.12 108.12 L 0 108.12" fill="#cdd6f9"/><rect x="108.123" y="108.123" width="108.123" height="108.123" fill="#ffffff"/><rect x="108.12" y="108.12" width="54.06" height="54.06" fill="#d4dbf9"/><polygon points="162.18,108.12 162.18,162.18 108.12,162.18" fill="#8dacac"/><rect x="162.18" y="108.12" width="54.06" height="54.06" fill="#f8fafa"/><polygon points="162.18,108.12 216.24,162.18 162.18,162.18" fill="#e0e9e9"/><rect x="108.12" y="162.18" width="54.06" height="54.06" fill="#8ca0f0"/><polygon points="108.12,162.18 162.18,162.18 108.12,216.24" fill="#90e9ff"/><rect x="162.18" y="162.18" width="54.06" height="54.06" fill="#8a9ef0"/><polygon points="162.18,162.18 216.24,162.18 216.24,216.24" fill="#cbf5ff"/><rect x="216.25" y="108.12" width="108.12" height="108.12" fill="#adbbf4"/><rect x="216.25" y="108.12" width="108.12" height="108.12" fill="#9cb8b8"/><rect x="324.369" y="108.123" width="108.123" height="108.123" fill="#ffffff"/><rect x="324.37" y="108.12" width="54.06" height="54.06" fill="#3c5de6"/><path d="M 324.37 162.18 A 54.06 54.06 0 0 1 378.43 108.12 L 378.43 121.635 A 40.545 40.545 0 0 0 337.885 162.18" fill="#1e44e2"/><rect x="378.43" y="108.12" width="54.06" height="54.06" fill="#f0f4f4"/><path d="M 378.43 108.12 A 54.06 54.06 0 0 1 432.49 162.18 L 418.975 162.18 A 40.545 40.545 0 0 0 378.43 121.635" fill="#8b9ff0"/><rect x="324.37" y="162.18" width="54.06" height="54.06" fill="#edf2f2"/><path d="M 324.37 162.18 A 54.06 54.06 0 0 0 378.43 216.24 L 378.43 202.72500000000002 A 40.545 40.545 0 0 1 337.885 162.18" fill="#ecfbff"/><rect x="378.43" y="162.18" width="54.06" height="54.06" fill="#b4f0ff"/><path d="M 378.43 216.24 A 54.06 54.06 0 0 0 432.49 162.18 L 418.975 162.18 A 40.545 40.545 0 0 1 378.43 202.72500000000002" fill="#4463e7"/><rect x="0" y="216.246" width="108.123" height="108.123" fill="#ffffff"/><rect x="0" y="216.25" width="54.06" height="54.06" fill="#7fe5ff"/><path d="M 0 270.31 A 54.06 54.06 0 0 0 54.06 216.25 L 0 216.25" fill="#b3f0ff"/><rect x="54.06" y="216.25" width="54.06" height="54.06" fill="#c9f4ff"/><path d="M 54.06 216.25 A 54.06 54.06 0 0 0 108.12 270.31 L 108.12 216.25" fill="#d8dffa"/><rect x="0" y="270.31" width="54.06" height="54.06" fill="#f9fbfb"/><path d="M 0 270.31 A 54.06 54.06 0 0 1 54.06 324.37 L 0 324.37" fill="#ccd4f8"/><rect x="54.06" y="270.31" width="54.06" height="54.06" fill="#9debff"/><path d="M 54.06 324.37 A 54.06 54.06 0 0 1  108.12 270.31 L 108.12 324.37" fill="#b8cccc"/><rect x="108.123" y="216.246" width="108.123" height="108.123" fill="#ffffff"/><rect x="108.12" y="216.25" width="54.06" height="54.06" fill="#c9f4ff"/><path d="M 108.12 270.31 A 54.06 54.06 0 0 1 162.18 216.25 L 162.18 229.765 A 40.545 40.545 0 0 0 121.635 270.31" fill="#3e5ee6"/><rect x="162.18" y="216.25" width="54.06" height="54.06" fill="#99b5b5"/><path d="M 162.18 216.25 A 54.06 54.06 0 0 1 216.24 270.31 L 202.72500000000002 270.31 A 40.545 40.545 0 0 0 162.18 229.765" fill="#acc3c3"/><rect x="108.12" y="270.31" width="54.06" height="54.06" fill="#70e2ff"/><path d="M 108.12 270.31 A 54.06 54.06 0 0 0 162.18 324.37 L 162.18 310.855 A 40.545 40.545 0 0 1 121.635 270.31" fill="#adbaf4"/><rect x="162.18" y="270.31" width="54.06" height="54.06" fill="#b6f0ff"/><path d="M 162.18 324.37 A 54.06 54.06 0 0 0 216.24 270.31 L 202.72500000000002 270.31 A 40.545 40.545 0 0 1 162.18 310.855" fill="#b8c4f6"/><rect x="216.25" y="216.25" width="108.12" height="108.12" fill="#edf0fd"/><path d="M 216.25 216.25 A 108.12 108.12 0 0 1  324.37 324.37 L 216.25 216.25 A 108.12 108.12 0 0 0 324.37 324.37" fill="#cad8d8"/><rect x="324.369" y="216.246" width="108.123" height="108.123" fill="#ffffff"/><rect x="324.37" y="216.25" width="54.06" height="54.06" fill="#35d6ff"/><path d="M 324.37 270.31 A 54.06 54.06 0 0 0 378.43 216.25 L 324.37 216.25" fill="#5874e9"/><rect x="378.43" y="216.25" width="54.06" height="54.06" fill="#3ed8ff"/><path d="M 378.43 216.25 A 54.06 54.06 0 0 0 432.49 270.31 L 432.49 216.25" fill="#274be3"/><rect x="324.37" y="270.31" width="54.06" height="54.06" fill="#8eadad"/><path d="M 324.37 270.31 A 54.06 54.06 0 0 1 378.43 324.37 L 324.37 324.37" fill="#a9eeff"/><rect x="378.43" y="270.31" width="54.06" height="54.06" fill="#b6caca"/><path d="M 378.43 324.37 A 54.06 54.06 0 0 1  432.49 270.31 L 432.49 324.37" fill="#d1dddd"/><rect x="0" y="324.369" width="108.123" height="108.123" fill="#ffffff"/><rect x="0" y="324.37" width="54.06" height="54.06" fill="#c0d1d1"/><path d="M 0 324.37 A 54.06 54.06 0 0 1 54.06 378.43 L 0 378.43" fill="#cedbdb"/><rect x="54.06" y="324.37" width="54.06" height="54.06" fill="#c2d3d3"/><path d="M 54.06 378.43 A 54.06 54.06 0 0 1  108.12 324.37 L 108.12 378.43" fill="#bef2ff"/><rect x="0" y="378.43" width="54.06" height="54.06" fill="#8398ef"/><path d="M 0 432.49 A 54.06 54.06 0 0 0 54.06 378.43 L 0 378.43" fill="#669090"/><rect x="54.06" y="378.43" width="54.06" height="54.06" fill="#a3b3f3"/><path d="M 54.06 378.43 A 54.06 54.06 0 0 0 108.12 432.49 L 108.12 378.43" fill="#2f52e4"/><rect x="108.12" y="324.37" width="108.12" height="108.12" fill="#8c9ff0"/><path d="M 108.12 432.49 A 108.12 108.12 0 0 1  216.24 324.37 L 216.24 432.49" fill="#c0caf7"/><rect x="216.25" y="324.37" width="108.12" height="108.12" fill="#a4edff"/><path d="M 216.25 324.37 A 108.12 108.12 0 0 0 324.37 432.49 L 324.37 324.37" fill="#8b9ff0"/><rect x="324.37" y="324.37" width="108.12" height="108.12" fill="#658f8f"/><polygon points="432.49,324.37 432.49,432.49 324.37,432.49" fill="#dcf8ff"/></g></svg>